<?xml version="1.0" encoding="UTF-8"?>
<svg width="752pt" height="752pt" version="1.1" viewBox="0 0 752 752" xmlns="http://www.w3.org/2000/svg">
 <path d="m561.5 239.07-82.66-15.801 1.8594-4.8086c4.6094-11.938-1.0352-25.148-12.852-30.078-11.957-4.9844-25.703 0.67188-30.688 12.602l-5.543 13.262-12.617-2.4102c-2.1875-0.41406-4.3906 0.75781-5.2578 2.8203l-30.238 72.152c-0.85156 2.0312-0.19141 4.3828 1.5977 5.6719l10.625 7.6641-19.688 47.117-19.688-47.117 10.625-7.6641c1.7891-1.2891 2.4492-3.6406 1.5977-5.6719l-30.238-72.152c-0.86328-2.0625-3.0664-3.2383-5.2578-2.8203l-12.617 2.4102-5.543-13.262c-4.9844-11.926-18.746-17.578-30.684-12.602-11.816 4.9297-17.461 18.137-12.852 30.078l1.8594 4.8086-82.656 15.801c-2.1094 0.40625-3.6797 2.1719-3.8359 4.3164-0.23047 3.2031-4.9258 79.102 56.105 134.02 0.89844 0.80859 2.0312 1.2148 3.168 1.2148 0.96875 0 1.9414-0.29688 2.7695-0.89453l65.777-47.445 32.93 85.273-49.84 119.3c-1.4609 3.4922-1.4688 7.3477-0.03125 10.848 1.4414 3.5 4.1562 6.2305 7.6523 7.6875l26.234 10.945c1.7656 0.73437 3.6133 1.1016 5.4648 1.1016 1.8867 0 3.7734-0.38281 5.5625-1.1484 3.5508-1.5156 6.2695-4.332 7.6602-7.9297l25.844-66.918 25.844 66.914c1.3906 3.6016 4.1094 6.4141 7.6562 7.9297 1.793 0.76562 3.6797 1.1484 5.5664 1.1484 1.8516 0 3.6992-0.36719 5.4609-1.1016l26.238-10.945c3.4922-1.457 6.207-4.1875 7.6484-7.6875 1.4414-3.5 1.4297-7.3516-0.03125-10.848l-49.852-119.3 32.93-85.273 65.777 47.445c0.83203 0.59766 1.8008 0.89453 2.7695 0.89453 1.1367 0 2.2734-0.41016 3.168-1.2148 61.031-54.918 56.336-130.82 56.109-134.02-0.15234-2.1445-1.7227-3.9141-3.832-4.3164zm-115.59-34.434c2.9727-7.1133 11.176-10.488 18.297-7.5117 7.043 2.9375 10.406 10.809 7.6602 17.922l-2.4805 6.4141-28.254-5.4023zm-24.906 17.223 97.469 18.629-43.93 104.82-80.836-58.309zm-62.613 65.141-80.836 58.309-43.93-104.82 97.469-18.629zm-78.16-71.953c-2.7461-7.1133 0.61719-14.988 7.6602-17.922 7.1094-2.9766 15.32 0.39844 18.297 7.5117l4.7734 11.426-28.254 5.4023zm-33.832 152.73c-47.527-44.938-50.379-104.94-50.289-120.12l28.004-5.3516 45.551 108.69zm76.121-43.227 25.949-18.719 22.441 53.711-18.129 43.383zm123.17 213.96c0.48438 1.1562 0.48828 2.4336 0.011718 3.5898-0.48047 1.1602-1.3789 2.0664-2.5352 2.5508l-26.238 10.945c-1.1758 0.49609-2.4805 0.48828-3.6602-0.015625-1.1758-0.50391-2.0781-1.4375-2.543-2.6328l-29.602-76.645 18.527-47.98zm-104.32 14.441c-0.46094 1.1914-1.3633 2.1289-2.543 2.6328-1.1797 0.5-2.4727 0.51172-3.6641 0.015624l-26.234-10.945c-1.1602-0.48438-2.0586-1.3906-2.5391-2.5508-0.47656-1.1602-0.47266-2.4336 0.011719-3.5898l97.223-232.68 25.949 18.719zm164.32-185.17-23.27-16.781 45.551-108.69 28.008 5.3516c0.09375 15.18-2.7578 75.184-50.289 120.12z" fill="#fff"/>
</svg>
