<?xml version="1.0" encoding="UTF-8"?>
<svg width="752pt" height="752pt" version="1.1" viewBox="0 0 752 752" xmlns="http://www.w3.org/2000/svg">
 <g fill="#fff" fill-rule="evenodd">
  <path d="m413.73 173.12c-2.625-13.348-14-23.195-27.598-23.867-0.039062-0.007812-0.078124-0.007812-0.12891-0.007812-6.6875-0.24609-13.398-0.23828-20.086 0.058594h-0.050781c-13.566 0.67187-24.93 10.496-27.547 23.828-1.4375 7.1016-3.1172 15.637-4.457 22.465-0.72266 3.6602-3.4336 6.5898-7.0156 7.5977-4.2422 1.1719-8.457 2.543-12.629 4.0625-0.011719 0.011719-0.019531 0.011719-0.03125 0.019532-3.4805 1.2852-7.3867 0.50391-10.102-2.0234-0.019532-0.007812-0.03125-0.019531-0.050782-0.039062-5.0977-4.6758-11.434-10.574-16.762-15.52-9.9648-9.2617-24.961-10.547-36.355-3.0977-0.03125 0.019532-0.070313 0.050782-0.10156 0.070313-5.5625 3.7383-10.988 7.6875-16.227 11.859-0.011719 0.007812-0.019532 0.019531-0.03125 0.027344-10.586 8.5156-14 23.148-8.2891 35.473 3.0117 6.5898 6.6719 14.48 9.6016 20.797 1.5703 3.375 1.1055 7.3516-1.2148 10.27-2.7305 3.4336-5.3477 7.0273-7.8242 10.707 0 0.007813-0.007812 0.019531-0.019531 0.027344-2.0508 3.0898-5.6719 4.7578-9.3516 4.3125-0.019532 0-0.039063-0.007813-0.058594-0.007813-6.8789-0.79297-15.473-1.8281-22.695-2.707-13.504-1.6367-26.391 6.1484-31.227 18.867-0.019531 0.039062-0.027344 0.078125-0.039063 0.11719-2.3086 6.293-4.3789 12.668-6.1641 19.129 0 0.011719 0 0.03125-0.011719 0.042969-3.5508 13.109 2.2812 26.953 14.148 33.562 6.3164 3.5625 13.91 7.7969 19.988 11.18 3.2578 1.8164 5.2109 5.3086 5.0625 9.0273-0.19922 4.3906-0.19922 8.832-0.039063 13.262v0.039063c0.15625 3.707-1.7969 7.1797-5.0312 8.9883-0.019531 0.007813-0.039062 0.019531-0.050781 0.027344-6.0391 3.4062-13.594 7.6094-19.949 11.148-11.891 6.6133-17.738 20.484-14.176 33.617 0.007812 0.039062 0.019531 0.078125 0.039062 0.11719 1.832 6.4414 3.9062 12.824 6.2539 19.102 0.007812 0.007812 0.007812 0.027344 0.019531 0.039062 4.8242 12.699 17.691 20.461 31.168 18.836 7.2031-0.82031 15.836-1.8672 22.75-2.7031 3.6992-0.44531 7.332 1.2305 9.3945 4.3281 2.418 3.6602 5.0312 7.2539 7.7656 10.746 0.007813 0.007812 0.019531 0.019531 0.027344 0.03125 2.3008 2.9102 2.7617 6.8633 1.2031 10.23-0.007813 0.019532-0.019532 0.039063-0.027344 0.058594-2.8711 6.293-6.5234 14.148-9.582 20.75-5.7305 12.332-2.3086 26.992 8.2891 35.516 0.039063 0.03125 0.070313 0.0625 0.097657 0.082031 5.2773 4.1328 10.707 8.0703 16.289 11.77 0.019531 0.007812 0.03125 0.019531 0.039062 0.019531 11.367 7.4375 26.344 6.1641 36.289-3.0781 5.3477-4.9023 11.723-10.824 16.82-15.559 2.7266-2.5352 6.6523-3.3164 10.145-2.0234 4.1133 1.5469 8.3359 2.9219 12.598 4.1328 0.011719 0 0.019531 0.011719 0.039063 0.011719 3.5742 1.0039 6.2773 3.9258 6.9883 7.5664 0 0.019531 0.007812 0.039062 0.007812 0.058594 1.3828 6.7891 3.0508 15.285 4.4414 22.418 2.625 13.348 14 23.195 27.594 23.863 0.042968 0.011718 0.082031 0.011718 0.12891 0.011718 6.6914 0.24609 13.398 0.23828 20.09-0.058593h0.046874c13.566-0.67188 24.934-10.5 27.547-23.828 1.4414-7.1016 3.1172-15.637 4.4609-22.465 0.71875-3.6602 3.4336-6.5898 7.0156-7.5977 4.2422-1.1719 8.4531-2.5469 12.629-4.0625 0.007813-0.011719 0.019532-0.011719 0.027344-0.023438 3.4844-1.2812 7.3906-0.5 10.105 2.0234 0.019531 0.011718 0.027343 0.019531 0.046875 0.039062 5.1016 4.6797 11.438 10.578 16.766 15.52 9.9648 9.2656 24.961 10.547 36.355 3.0977 0.03125-0.019532 0.070312-0.046875 0.097656-0.066406 5.5664-3.7383 10.992-7.6875 16.23-11.859 0.011719-0.011718 0.019532-0.019531 0.03125-0.03125 10.586-8.5117 14-23.145 8.2852-35.469-3.0078-6.5898-6.668-14.484-9.5977-20.797-1.5703-3.375-1.1055-7.3516 1.2109-10.273 2.7344-3.4297 5.3477-7.0234 7.8242-10.703 0-0.007813 0.011719-0.019531 0.019531-0.03125 2.0547-3.0859 5.6758-4.7539 9.3555-4.3086 0.019531 0 0.039062 0.007813 0.058593 0.007813 6.875 0.78906 15.469 1.8242 22.691 2.7031 13.508 1.6406 26.395-6.1445 31.227-18.863 0.019531-0.039063 0.03125-0.078126 0.039063-0.11719 2.3086-6.2969 4.3828-12.668 6.168-19.133 0-0.007813 0-0.027344 0.011719-0.039063 3.5508-13.113-2.2812-26.953-14.148-33.566-6.3164-3.5586-13.914-7.793-19.992-11.176-3.2539-1.8164-5.207-5.3086-5.0586-9.0273 0.19531-4.3906 0.19531-8.832 0.039063-13.262v-0.039063c-0.16016-3.7109 1.7969-7.1836 5.0312-8.9883 0.019531-0.011719 0.039063-0.019531 0.050781-0.03125 6.0352-3.4023 13.594-7.6055 19.949-11.148 11.887-6.6094 17.738-20.48 14.176-33.613-0.007812-0.039062-0.019531-0.078124-0.039062-0.11719-1.8359-6.4453-3.9062-12.828-6.2539-19.102-0.011719-0.011718-0.011719-0.03125-0.019532-0.039062-4.8242-12.699-17.691-20.465-31.168-18.836-7.2031 0.82031-15.836 1.8633-22.754 2.7031-3.6992 0.44531-7.3281-1.2344-9.3906-4.332-2.418-3.6602-5.0312-7.25-7.7656-10.742-0.007812-0.011719-0.019531-0.019531-0.027343-0.03125-2.3008-2.9102-2.7656-6.8672-1.207-10.23 0.011719-0.019531 0.019532-0.039062 0.03125-0.058594 2.8711-6.2969 6.5195-14.148 9.5781-20.75 5.7344-12.332 2.3125-26.992-8.2852-35.52-0.039063-0.027344-0.070313-0.058594-0.097656-0.078125-5.2812-4.1328-10.707-8.0703-16.289-11.77-0.023437-0.011719-0.03125-0.019531-0.042968-0.019531-11.363-7.4414-26.34-6.168-36.285 3.0781-5.3477 4.9023-11.723 10.824-16.824 15.559-2.7227 2.5352-6.6484 3.3164-10.141 2.0234-4.1133-1.5508-8.3398-2.9219-12.602-4.1328-0.007813 0-0.019531-0.011719-0.039063-0.011719-3.5703-1.0078-6.2734-3.9258-6.9844-7.5664 0-0.019531-0.011719-0.039062-0.011719-0.058594-1.3789-6.7891-3.0469-15.285-4.4375-22.418zm-19.367 3.7969c1.4102 7.1758 3.0859 15.707 4.4688 22.535 2.1328 10.895 10.262 19.695 21.004 22.715 3.7109 1.0547 7.4219 2.2578 11.07 3.6289 0.011719 0 0.03125 0.011719 0.039062 0.011719 10.48 3.8867 22.238 1.5391 30.43-6.0586 5.082-4.7148 11.414-10.605 16.773-15.531 0.019531-0.007812 0.027343-0.019531 0.046874-0.039062 3.3047-3.0664 8.2695-3.4922 12.047-1.0273 5.1133 3.375 10.074 6.9883 14.898 10.766 3.5117 2.8438 4.6367 7.7148 2.7344 11.809v0.011719c-3.0781 6.6289-6.7383 14.512-9.6289 20.848-4.6797 10.074-3.2773 21.973 3.6484 30.723 2.3789 3.0391 4.668 6.1953 6.8164 9.4414 0.011718 0.011719 0.011718 0.03125 0.019531 0.039062 6.1992 9.2969 17.09 14.316 28.18 12.984h0.011719c6.875-0.83594 15.457-1.875 22.691-2.7031 0.019531 0 0.039063 0 0.058594-0.007812 4.4805-0.54297 8.7422 2.043 10.352 6.2539 2.1484 5.7422 4.043 11.574 5.7305 17.465 1.1641 4.3594-0.78906 8.9688-4.7344 11.156l-0.011719 0.011719c-6.3828 3.5508-13.98 7.7852-20.047 11.207-9.6992 5.3984-15.559 15.844-15.105 26.996 0.14844 3.8555 0.14844 7.7539-0.03125 11.652v0.039062c-0.46094 11.168 5.4062 21.637 15.164 27.07 6.0586 3.3672 13.617 7.5781 19.949 11.148 0.019531 0.011719 0.03125 0.019531 0.050781 0.03125 3.9453 2.1992 5.8789 6.7969 4.707 11.148-1.6367 5.9023-3.5312 11.742-5.6328 17.492-1.6289 4.2148-5.9102 6.7891-10.391 6.2461h-0.011719c-7.25-0.87891-15.895-1.9219-22.809-2.7109-11.012-1.332-21.902 3.6797-28.09 12.961-2.1523 3.207-4.4414 6.3555-6.8672 9.4023-0.007812 0.011719-0.019531 0.019532-0.027343 0.042969-6.9297 8.7578-8.3398 20.668-3.6406 30.812 2.918 6.2812 6.5586 14.125 9.5781 20.746 0.011718 0.019531 0.019531 0.03125 0.03125 0.050781 1.8945 4.0938 0.75781 8.9492-2.7461 11.781-4.793 3.8164-9.7578 7.4258-14.848 10.84-3.7891 2.457-8.7617 2.0234-12.074-1.0547-5.3594-4.9727-11.73-10.891-16.863-15.609-8.1289-7.5469-19.879-9.8945-30.348-6.0156-3.6211 1.332-7.332 2.5352-11.09 3.5703-0.011719 0-0.019532 0.011719-0.039063 0.011719-10.754 3.0156-18.895 11.828-21.055 22.789-1.332 6.7969-3 15.293-4.4414 22.418-0.007812 0.019531-0.007812 0.039063-0.019531 0.058594-0.86719 4.4297-4.6367 7.6836-9.1367 7.9102-6.125 0.27734-12.254 0.27734-18.379 0.050781-4.5078-0.23828-8.2891-3.5117-9.1562-7.9531-1.4102-7.1719-3.0898-15.707-4.4688-22.535-2.1328-10.891-10.262-19.691-21.008-22.711-3.707-1.0547-7.418-2.2578-11.07-3.6289-0.007812 0-0.027344-0.011719-0.039062-0.011719-10.477-3.8867-22.238-1.5391-30.426 6.0586-5.082 4.7148-11.414 10.605-16.773 15.527-0.019531 0.011719-0.027344 0.023438-0.050781 0.042969-3.3047 3.0664-8.2656 3.4922-12.043 1.0234-5.1133-3.375-10.074-6.9844-14.898-10.762-3.5156-2.8438-4.6367-7.7188-2.7344-11.812v-0.007813c3.0781-6.6328 6.7383-14.516 9.6289-20.848 4.6758-10.074 3.2773-21.973-3.6484-30.723-2.3789-3.0391-4.668-6.1992-6.8203-9.4453-0.007812-0.007812-0.007812-0.027344-0.019531-0.039062-6.1953-9.293-17.086-14.316-28.176-12.984h-0.011719c-6.875 0.83984-15.461 1.875-22.691 2.7031-0.019531 0-0.039063 0-0.058594 0.011718-4.4805 0.54297-8.7422-2.043-10.352-6.2539-2.1484-5.7422-4.043-11.574-5.7305-17.465-1.1641-4.3594 0.78906-8.9688 4.7344-11.16l0.011719-0.007812c6.3828-3.5508 13.98-7.7852 20.047-11.207 9.6992-5.3984 15.559-15.848 15.105-26.996-0.14844-3.8555-0.14844-7.7539 0.027343-11.652v-0.039063c0.46484-11.168-5.4062-21.637-15.164-27.074-6.0547-3.3633-13.613-7.5742-19.949-11.148-0.019531-0.007812-0.027344-0.019531-0.046875-0.027344-3.9492-2.2031-5.8828-6.8008-4.707-11.148 1.6367-5.9023 3.5312-11.742 5.6328-17.496 1.6289-4.2109 5.9102-6.7852 10.391-6.2422h0.007813c7.2539 0.875 15.895 1.9219 22.812 2.7109 11.012 1.332 21.902-3.6797 28.09-12.965 2.1484-3.207 4.4375-6.3516 6.8672-9.4023 0.007813-0.007813 0.019531-0.019532 0.027344-0.039063 6.9258-8.7617 8.3359-20.668 3.6406-30.812-2.918-6.2852-6.5586-14.129-9.5781-20.746-0.011719-0.023437-0.019531-0.03125-0.03125-0.050781-1.8945-4.0938-0.75781-8.9492 2.7422-11.781 4.7969-3.8164 9.7578-7.4297 14.852-10.844 3.7852-2.457 8.7578-2.0195 12.074 1.0586 5.3594 4.9727 11.73 10.891 16.863 15.605 8.1289 7.5508 19.879 9.8984 30.348 6.0195 3.6211-1.332 7.3281-2.5352 11.09-3.5703 0.007812 0 0.019531-0.011719 0.039062-0.011719 10.754-3.0195 18.895-11.828 21.055-22.789 1.332-6.8008 3-15.293 4.4375-22.418 0.011719-0.019531 0.011719-0.039062 0.023437-0.058593 0.86719-4.4297 4.6367-7.6875 9.1328-7.9141 6.1289-0.27344 12.254-0.27344 18.383-0.046875 4.5078 0.23438 8.2891 3.5117 9.1562 7.9492z"/>
  <path d="m376 267.47c-59.898 0-108.53 48.629-108.53 108.53s48.629 108.53 108.53 108.53 108.53-48.633 108.53-108.53-48.633-108.53-108.53-108.53zm0 19.73c49.008 0 88.797 39.793 88.797 88.797 0 49.008-39.789 88.797-88.797 88.797-49.004 0-88.797-39.789-88.797-88.797 0-49.004 39.793-88.797 88.797-88.797z"/>
 </g>
</svg>
